<svg xmlns="http://www.w3.org/2000/svg" xmlns:xlink="http://www.w3.org/1999/xlink" width="34.489" height="34.489" viewBox="0 0 34.489 34.489"><defs><linearGradient id="a" x1="0.084" y1="0.916" x2="0.916" y2="0.084" gradientUnits="objectBoundingBox"><stop offset="0" stop-color="#ffd600"/><stop offset="0.5" stop-color="#ff0100"/><stop offset="1" stop-color="#d800b9"/></linearGradient><linearGradient id="b" x1="0.146" y1="0.854" x2="0.854" y2="0.146" gradientUnits="objectBoundingBox"><stop offset="0" stop-color="#ff6400"/><stop offset="0.5" stop-color="#ff0100"/><stop offset="1" stop-color="#fd0056"/></linearGradient><linearGradient id="c" x1="0.146" y1="0.854" x2="0.854" y2="0.146" gradientUnits="objectBoundingBox"><stop offset="0" stop-color="#f30072"/><stop offset="1" stop-color="#e50097"/></linearGradient></defs><path d="M34.385,10.135a12.66,12.66,0,0,0-.8-4.186,8.452,8.452,0,0,0-1.989-3.054A8.454,8.454,0,0,0,28.54.9,12.658,12.658,0,0,0,24.354.1C22.515.02,21.928,0,17.244,0s-5.271.02-7.11.1a12.662,12.662,0,0,0-4.186.8A8.452,8.452,0,0,0,2.894,2.894,8.453,8.453,0,0,0,.9,5.948a12.659,12.659,0,0,0-.8,4.186C.02,11.974,0,12.561,0,17.244s.02,5.271.1,7.11a12.657,12.657,0,0,0,.8,4.186,8.451,8.451,0,0,0,1.989,3.054,8.449,8.449,0,0,0,3.054,1.989,12.653,12.653,0,0,0,4.186.8c1.839.084,2.427.1,7.11.1s5.271-.02,7.11-.1a12.655,12.655,0,0,0,4.186-.8,8.816,8.816,0,0,0,5.043-5.043,12.656,12.656,0,0,0,.8-4.186c.084-1.839.1-2.427.1-7.11s-.02-5.271-.1-7.11Zm-3.1,14.078a9.541,9.541,0,0,1-.594,3.2,5.711,5.711,0,0,1-3.273,3.273,9.541,9.541,0,0,1-3.2.594c-1.818.083-2.363.1-6.968.1s-5.15-.017-6.969-.1a9.544,9.544,0,0,1-3.2-.594A5.344,5.344,0,0,1,5.091,29.4,5.342,5.342,0,0,1,3.8,27.415a9.541,9.541,0,0,1-.594-3.2c-.083-1.818-.1-2.364-.1-6.968s.018-5.15.1-6.969a9.548,9.548,0,0,1,.594-3.2,5.346,5.346,0,0,1,1.29-1.983A5.339,5.339,0,0,1,7.074,3.8a9.539,9.539,0,0,1,3.2-.594c1.818-.083,2.364-.1,6.968-.1h0c4.6,0,5.15.018,6.969.1a9.543,9.543,0,0,1,3.2.594A5.347,5.347,0,0,1,29.4,5.091a5.339,5.339,0,0,1,1.29,1.983,9.533,9.533,0,0,1,.594,3.2c.083,1.818.1,2.364.1,6.968s-.017,5.15-.1,6.969Zm0,0" transform="translate(0 0)" fill="url(#a)"/><path d="M133.394,124.539a8.855,8.855,0,1,0,8.855,8.855A8.855,8.855,0,0,0,133.394,124.539Zm0,14.6a5.748,5.748,0,1,1,5.748-5.748A5.748,5.748,0,0,1,133.394,139.143Zm0,0" transform="translate(-116.15 -116.15)" fill="url(#b)"/><path d="M366.068,90.695A2.069,2.069,0,1,1,364,88.625,2.069,2.069,0,0,1,366.068,90.695Zm0,0" transform="translate(-337.549 -82.655)" fill="url(#c)"/></svg>