<svg width="0" height="0" xmlns="http://www.w3.org/2000/svg">
    <symbol id="a" viewBox="0 0 88 88"><g fill="none" stroke="#fff" stroke-width="20" opacity="0.3"><circle cx="44" cy="44" r="44" stroke="none"/><circle cx="44" cy="44" r="34" fill="none"/></g></symbol>
    <symbol id="b" viewBox="0 0 67 66"><line x2="58.5" y2="58" transform="translate(4.243 4.243)" fill="none" stroke="#0071c7" stroke-linecap="round" stroke-width="6"/></symbol>
    <symbol id="c" viewBox="0 0 50 65"><line x1="42" y2="57" transform="translate(4.195 4.195)" fill="none" stroke="#0071c7" stroke-linecap="round" stroke-width="6"/></symbol>
    <symbol id="d" viewBox="0 0 138 128"><path d="M52.667,7.526a5,5,0,0,1,8.666,0l48.352,83.979A5,5,0,0,1,105.352,99H8.648a5,5,0,0,1-4.333-7.495Z" transform="translate(109.019 128.005) rotate(-163)" fill="#f39100"/></symbol>
    <symbol id="e" viewBox="0 0 167 155"><path d="M64.665,7.538a5,5,0,0,1,8.669,0l60.357,104.969A5,5,0,0,1,129.357,120H8.643a5,5,0,0,1-4.335-7.492Z" transform="translate(131.97 155.104) rotate(-163)" fill="#11609c"/></symbol>
    <symbol id="f" viewBox="0 0 67 66"><line x2="58.5" y2="58" transform="translate(4.243 4.243)" fill="none" stroke="#f39100" stroke-linecap="round" stroke-width="6"/></symbol>
    <symbol id="g" viewBox="0 0 88 88"><g fill="none" stroke="#f39100" stroke-width="20"><circle cx="44" cy="44" r="44" stroke="none"/><circle cx="44" cy="44" r="34" fill="none"/></g></symbol>
    <symbol id="h" viewBox="0 0 90 61"><line y1="53" x2="82" transform="translate(4.148 4.148)" fill="none" stroke="#11609c" stroke-linecap="round" stroke-width="6"/></symbol>
    <symbol id="i" viewBox="0 0 125 125"><path d="M43.173,7.469a5,5,0,0,1,8.653,0L90.652,74.494A5,5,0,0,1,86.325,82H8.675a5,5,0,0,1-4.327-7.506Z" transform="translate(124.505 54.869) rotate(132)" fill="#f39100"/></symbol>
    <symbol id="j" viewBox="0 0 121 71"><line y1="63" x2="113" transform="translate(4.081 4.081)" fill="none" stroke="#f39100" stroke-linecap="round" stroke-width="6"/></symbol>
    <symbol id="k" viewBox="0 0 141 159"><path d="M67.318,15.194a10,10,0,0,1,17.365,0l58.768,102.844A10,10,0,0,1,134.768,133H17.232a10,10,0,0,1-8.682-14.961Z" transform="matrix(-0.052, -0.999, 0.999, -0.052, 7.955, 158.752)" fill="#f39100"/></symbol>
    <symbol id="l" viewBox="0 0 88 88"><g fill="none" stroke="#0071c7" stroke-width="20"><circle cx="44" cy="44" r="44" stroke="none"/><circle cx="44" cy="44" r="34" fill="none"/></g></symbol>
    <symbol id="m" viewBox="0 0 81 81"><line x2="73" y2="73" transform="translate(4.243 4.243)" fill="none" stroke="#f39100" stroke-linecap="round" stroke-width="6"/></symbol>
    <symbol id="n" viewBox="0 0 91 66"><line x2="83" y2="58" transform="translate(4.177 4.177)" fill="none" stroke="#11609c" stroke-linecap="round" stroke-width="6"/></symbol>
    <symbol id="o" viewBox="0 0 200 200"><circle cx="100" cy="100" r="100" fill="#f39100" opacity="0.15"/></symbol>
    <symbol id="p" viewBox="0 0 91 65"><line y1="57" x2="83" transform="translate(4.171 4.171)" fill="none" stroke="#11609c" stroke-linecap="round" stroke-width="6"/></symbol>
    <symbol id="r" viewBox="0 0 160 162"><path d="M56.666,7.531a5,5,0,0,1,8.667,0l52.354,90.976A5,5,0,0,1,113.354,106H8.646a5,5,0,0,1-4.334-7.494Z" transform="translate(78.773) rotate(48)" fill="#11609c"/></symbol>
    <symbol id="s" viewBox="0 0 167 155"><path d="M64.665,7.538a5,5,0,0,1,8.669,0l60.357,104.969A5,5,0,0,1,129.357,120H8.643a5,5,0,0,1-4.335-7.492Z" transform="translate(131.97 155.104) rotate(-163)" fill="#11609c"/></symbol>
    <symbol id="t" viewBox="0 0 88 88"><g fill="none" stroke="#f39100" stroke-width="20"><circle cx="44" cy="44" r="44" stroke="none"/><circle cx="44" cy="44" r="34" fill="none"/></g></symbol>
    <symbol id="u" viewBox="0 0 81 81"><line x2="73" y2="73" transform="translate(4.243 4.243)" fill="none" stroke="#11609c" stroke-linecap="round" stroke-width="6"/></symbol>

    <symbol id="v" viewBox="0 0 91 65"><line y1="57" x2="83" transform="translate(4.171 4.171)" fill="none" stroke="#11609c" stroke-linecap="round" stroke-width="6"/></symbol>
    <symbol id="w" viewBox="0 0 88 88"><g fill="none" stroke="#f39100" stroke-width="20"><circle cx="44" cy="44" r="44" stroke="none"/><circle cx="44" cy="44" r="34" fill="none"/></g></symbol>
    <symbol id="x" viewBox="0 0 190 172"><path d="M79.167,7.524a5,5,0,0,1,8.666,0L162.684,137.5a5,5,0,0,1-4.333,7.5H8.649a5,5,0,0,1-4.333-7.5Z" transform="translate(25.179) rotate(10)" fill="#11609c"/></symbol>
    <symbol id="y" viewBox="0 0 31 68"><line x1="23" y2="60" transform="translate(3.875 3.875)" fill="none" stroke="#f39100" stroke-linecap="round" stroke-width="6"/></symbol>

    <symbol id="prezent" viewBox="0 0 115 108"><g transform="translate(10 -16.314)" opacity="0.22"><g transform="translate(-10 16.314)"><path d="M107.729,44.9H85.005a27.9,27.9,0,0,0,4.008-3.21,15.025,15.025,0,0,0,0-21.129,15.183,15.183,0,0,0-21.065,0C64.839,23.685,56.572,36.4,57.714,44.9H57.2c1.135-8.5-7.124-21.215-10.234-24.34a15.183,15.183,0,0,0-21.065,0,15.031,15.031,0,0,0-.007,21.129,28.42,28.42,0,0,0,4.015,3.21H7.182A7.194,7.194,0,0,0,0,52.083V70.038a3.592,3.592,0,0,0,3.591,3.591H7.182V116.72a7.194,7.194,0,0,0,7.182,7.182h86.183a7.194,7.194,0,0,0,7.182-7.182V73.629h3.591a3.592,3.592,0,0,0,3.591-3.591V52.083A7.194,7.194,0,0,0,107.729,44.9ZM30.99,25.624a7.655,7.655,0,0,1,10.881,0c4.841,4.869,9.653,17.308,7.979,19.039a2.368,2.368,0,0,1-1.329.237c-4.963,0-14.436-5.157-17.531-8.274A7.833,7.833,0,0,1,30.99,25.624Zm22.874,91.1h-39.5V73.629h39.5Zm0-50.274H7.182V52.083H53.865ZM73.04,25.624a7.737,7.737,0,0,1,10.881,11C80.826,39.744,71.353,44.9,66.39,44.9a2.359,2.359,0,0,1-1.336-.237C63.388,42.933,68.2,30.494,73.04,25.624Zm27.507,91.1h-39.5V73.629h39.5Zm7.182-50.274H61.046V52.083h46.683Z" transform="translate(0 -16.314)" fill="#fff"/></g></g></symbol>
    <symbol id="word" viewBox="0 0 758 80"><path d="M37.517-10.891H18.258L14.895,0H-.12L21.261-58.3H34.474L56.015,0H40.92Zm-15.9-10.851H34.153l-6.286-20.22Zm53.292,5.686L81.76-43.322H95.974L81.84,0H68.066L53.933-43.322H68.187ZM123.8,0a15.235,15.235,0,0,1-1.281-3.884Q118.8.8,112.109.8A15.371,15.371,0,0,1,101.7-2.9a11.789,11.789,0,0,1-4.284-9.309q0-7.047,5.205-10.65t15.135-3.6h4.164v-2.293q0-5.995-5.165-5.995-4.8,0-4.8,4.748H98.456A12.1,12.1,0,0,1,103.8-40.2q5.345-3.919,13.633-3.919t13.093,4.044q4.8,4.044,4.925,11.091V-9.81q.08,5.966,1.842,9.129V0Zm-8.448-8.809a7.527,7.527,0,0,0,4.184-1.081,6.775,6.775,0,0,0,2.382-2.442v-6.927H118q-7.047,0-7.047,6.326a3.863,3.863,0,0,0,1.241,2.983A4.492,4.492,0,0,0,115.353-8.809Zm39.959-34.514.44,5.085a14.691,14.691,0,0,1,12.372-5.886q6.767,0,10.11,4.044T181.7-27.907V0H168.164V-27.347a7.311,7.311,0,0,0-1.321-4.825q-1.321-1.542-4.8-1.542a6.435,6.435,0,0,0-5.886,3.123V0H142.659V-43.322ZM207.482-9.609a6,6,0,0,0,4.4-1.542,5.653,5.653,0,0,0,1.521-4.3h12.652a14.978,14.978,0,0,1-5.1,11.691Q215.851.8,207.8.8q-9.449,0-14.895-5.926t-5.445-16.416V-22.1a26.388,26.388,0,0,1,2.422-11.591,17.637,17.637,0,0,1,6.987-7.728,20.833,20.833,0,0,1,10.811-2.7q8.448,0,13.413,4.685t4.965,12.692H213.408a7.407,7.407,0,0,0-1.642-5.165,5.667,5.667,0,0,0-4.4-1.8q-5.245,0-6.126,6.687a47.183,47.183,0,0,0-.28,5.846q0,6.526,1.562,9.049A5.406,5.406,0,0,0,207.482-9.609Zm50.089,4.925A13.912,13.912,0,0,1,246,.8q-7.127,0-10.791-4.144t-3.664-11.912V-43.322h13.493v28.147q0,5.565,5.405,5.565,4.645,0,6.606-3.323v-30.39h13.573V0H257.972Zm36.155-49.408v10.771h7.127v9.369h-7.127v19.819a5.06,5.06,0,0,0,.881,3.4q.881.961,3.483.961a19.8,19.8,0,0,0,3.363-.24V-.36A24.9,24.9,0,0,1,293.847.8q-6.967,0-10.29-3.283t-3.323-9.97v-21.5h-5.525v-9.369h5.525V-54.093Zm76.835,6.646h-17.5V0H339.011V-47.446H321.834V-58.3h48.728ZM396.827.8q-9.97,0-16.136-5.946T374.525-20.62v-1.121a26.605,26.605,0,0,1,2.462-11.731,18.018,18.018,0,0,1,7.187-7.868,21.7,21.7,0,0,1,11.211-2.783q9.129,0,14.414,5.666t5.285,15.8v5.245H388.259a9.725,9.725,0,0,0,3.163,5.726,9.412,9.412,0,0,0,6.326,2.082,12.127,12.127,0,0,0,10.01-4.484l6.166,7.287a17.236,17.236,0,0,1-7.147,5.545A24.152,24.152,0,0,1,396.827.8Zm-1.521-34.514q-5.926,0-7.047,7.848h13.613v-1.041a6.684,6.684,0,0,0-1.642-5.025A6.532,6.532,0,0,0,395.306-33.713Zm43.522,24.1a6,6,0,0,0,4.4-1.542,5.653,5.653,0,0,0,1.521-4.3h12.652a14.978,14.978,0,0,1-5.1,11.691Q447.2.8,439.148.8,429.7.8,424.254-5.125t-5.445-16.416V-22.1a26.388,26.388,0,0,1,2.422-11.591,17.637,17.637,0,0,1,6.987-7.728,20.833,20.833,0,0,1,10.811-2.7q8.448,0,13.413,4.685t4.965,12.692H444.754a7.407,7.407,0,0,0-1.642-5.165,5.666,5.666,0,0,0-4.4-1.8q-5.245,0-6.126,6.687a47.18,47.18,0,0,0-.28,5.846q0,6.526,1.562,9.049A5.406,5.406,0,0,0,438.828-9.609ZM476.3-38.678a13.5,13.5,0,0,1,11.051-5.445q7.167,0,10.811,4.244t3.724,12.532V0H488.356V-27.026q0-3.443-1.4-5.065t-4.765-1.622q-4.164,0-5.886,2.643V0H462.812V-61.5H476.3Zm45.484-4.645.44,5.085A14.691,14.691,0,0,1,534.6-44.123q6.767,0,10.11,4.044t3.463,12.172V0H534.642V-27.347a7.311,7.311,0,0,0-1.321-4.825q-1.321-1.542-4.8-1.542a6.435,6.435,0,0,0-5.886,3.123V0H509.137V-43.322ZM553.94-22.062a25.569,25.569,0,0,1,2.522-11.551A18.039,18.039,0,0,1,563.71-41.4,21.826,21.826,0,0,1,574.8-44.123q9.729,0,15.335,6.026t5.605,16.4v.48q0,10.13-5.625,16.076T574.881.8q-9.249,0-14.854-5.545T553.98-19.779Zm13.493.841q0,6.006,1.882,8.809a6.269,6.269,0,0,0,5.565,2.8q7.207,0,7.367-11.091v-1.361q0-11.651-7.447-11.651-6.767,0-7.327,10.05ZM615.921,0H602.388V-61.5h13.533Zm6.606-22.062a25.569,25.569,0,0,1,2.522-11.551A18.039,18.039,0,0,1,632.3-41.4a21.826,21.826,0,0,1,11.091-2.723q9.729,0,15.335,6.026t5.605,16.4v.48q0,10.13-5.625,16.076T643.468.8q-9.249,0-14.854-5.545t-6.046-15.035Zm13.493.841q0,6.006,1.882,8.809a6.269,6.269,0,0,0,5.565,2.8q7.207,0,7.367-11.091v-1.361q0-11.651-7.447-11.651-6.767,0-7.327,10.05Zm32.672-.761a29.251,29.251,0,0,1,2.162-11.611,17.406,17.406,0,0,1,6.206-7.788,16.359,16.359,0,0,1,9.409-2.743q6.767,0,10.57,4.564l.48-3.764h12.252V-1.642a18.265,18.265,0,0,1-2.663,9.95,17.085,17.085,0,0,1-7.708,6.486,28.33,28.33,0,0,1-11.691,2.262,24.441,24.441,0,0,1-9.229-1.8,16.659,16.659,0,0,1-6.827-4.685L677.3,2.643a12.372,12.372,0,0,0,9.93,4.444q8.969,0,8.969-9.209V-3.483A12.67,12.67,0,0,1,686.39.8a15.657,15.657,0,0,1-12.812-6.066q-4.885-6.066-4.885-16.236Zm13.533.841q0,5.325,2,8.428a6.316,6.316,0,0,0,5.605,3.1q4.364,0,6.366-2.923V-30.75q-1.962-2.963-6.286-2.963a6.358,6.358,0,0,0-5.646,3.223Q682.226-27.267,682.226-21.141ZM734.757-18.9l7.207-24.424h14.454L738.761,7.247,738,9.089Q734.236,17.5,724.707,17.5a21.147,21.147,0,0,1-5.565-.8V7.087H720.9a9.228,9.228,0,0,0,4.344-.821A4.984,4.984,0,0,0,727.47,3.32L728.551.435,713.5-43.322H727.91Z" transform="translate(0.836 62)" fill="none" stroke="#fff" stroke-width="1" opacity="0.35"/></symbol>
</svg>