<svg width="0" height="0" xmlns="http://www.w3.org/2000/svg">
    <symbol id="letter" viewBox="0 0 20 12.5">
        <path d="M20-16.25v12.5H0v-12.5ZM1.4-15,10-10.693,18.6-15ZM18.75-5v-8.672L10-9.307,1.25-13.672V-5Z" transform="translate(0 16.25)"/>
    </symbol>
    <symbol id="phone" viewBox="0 0 20 20">
        <path d="M15.693-8.154a2.167,2.167,0,0,1,.825.161,2.1,2.1,0,0,1,.7.464l2.148,2.148a2.1,2.1,0,0,1,.464.7,2.167,2.167,0,0,1,.161.825,2.167,2.167,0,0,1-.161.825,2.1,2.1,0,0,1-.464.7l-.137.137q-.527.527-.967.938a5.121,5.121,0,0,1-.918.688,4.066,4.066,0,0,1-1.064.425,5.819,5.819,0,0,1-1.4.146,8.837,8.837,0,0,1-2.51-.381A13.925,13.925,0,0,1,9.81-1.436a18.379,18.379,0,0,1-2.5-1.6A21.667,21.667,0,0,1,5-5.063,22.232,22.232,0,0,1,2.988-7.388a18.21,18.21,0,0,1-1.582-2.5A14.021,14.021,0,0,1,.371-12.432,8.755,8.755,0,0,1,0-14.893a5.884,5.884,0,0,1,.142-1.387,3.969,3.969,0,0,1,.42-1.055,5.1,5.1,0,0,1,.684-.913q.405-.435.933-.962l.156-.156a2.176,2.176,0,0,1,.693-.469A2.1,2.1,0,0,1,3.857-20a2.111,2.111,0,0,1,.825.166,2.161,2.161,0,0,1,.7.469l2.148,2.148a2.1,2.1,0,0,1,.464.7,2.167,2.167,0,0,1,.161.825,1.905,1.905,0,0,1-.146.767,2.77,2.77,0,0,1-.361.61,3.614,3.614,0,0,1-.474.5q-.259.225-.474.439a2.871,2.871,0,0,0-.361.435.838.838,0,0,0-.146.474.865.865,0,0,0,.264.635l5.381,5.381a.865.865,0,0,0,.635.264.838.838,0,0,0,.474-.146,2.871,2.871,0,0,0,.435-.361q.215-.215.439-.474a3.614,3.614,0,0,1,.5-.474,2.77,2.77,0,0,1,.61-.361A1.905,1.905,0,0,1,15.693-8.154Zm-.811,6.9a4.461,4.461,0,0,0,1.177-.132,3.039,3.039,0,0,0,.854-.381,4.413,4.413,0,0,0,.742-.62q.361-.371.83-.84a.865.865,0,0,0,.264-.635.849.849,0,0,0-.142-.415,3.666,3.666,0,0,0-.366-.5q-.225-.264-.5-.542t-.547-.527q-.269-.249-.5-.459t-.356-.337a.877.877,0,0,0-.645-.264.815.815,0,0,0-.469.146,3.014,3.014,0,0,0-.43.361q-.215.215-.444.474a3.849,3.849,0,0,1-.5.474,2.77,2.77,0,0,1-.61.361,1.905,1.905,0,0,1-.767.146,2.167,2.167,0,0,1-.825-.161,2.1,2.1,0,0,1-.7-.464L5.566-10.947a2.1,2.1,0,0,1-.464-.7,2.167,2.167,0,0,1-.161-.825,1.905,1.905,0,0,1,.146-.767,2.77,2.77,0,0,1,.361-.61,3.849,3.849,0,0,1,.474-.5q.259-.229.474-.444a3.014,3.014,0,0,0,.361-.43.815.815,0,0,0,.146-.469.877.877,0,0,0-.264-.645q-.127-.127-.337-.356t-.459-.5q-.249-.269-.527-.547t-.542-.5a3.666,3.666,0,0,0-.5-.366.849.849,0,0,0-.415-.142.865.865,0,0,0-.635.264q-.469.469-.835.83a4.976,4.976,0,0,0-.625.742,2.884,2.884,0,0,0-.391.854,4.417,4.417,0,0,0-.132,1.167A7.676,7.676,0,0,0,1.6-12.637a12.689,12.689,0,0,0,.986,2.324,17.7,17.7,0,0,0,1.489,2.29A20.405,20.405,0,0,0,5.947-5.889,20.994,20.994,0,0,0,8.091-4.033a17.692,17.692,0,0,0,2.285,1.47,12.6,12.6,0,0,0,2.3.967A7.608,7.608,0,0,0,14.883-1.25Z" transform="translate(0 20)"/>
    </symbol>
    <symbol id="user" viewBox="0 0 14 16">
        <path d="M-5.609-6.6A6.693,6.693,0,0,1-3.691-5.574,6.785,6.785,0,0,1-2.238-4.047a6.964,6.964,0,0,1,.918,1.9A7.2,7.2,0,0,1-1,0H-2a6.127,6.127,0,0,0-.457-2.379,5.824,5.824,0,0,0-1.262-1.9,5.824,5.824,0,0,0-1.9-1.262A6.127,6.127,0,0,0-8-6a6.089,6.089,0,0,0-1.609.211,6.029,6.029,0,0,0-1.441.6,5.85,5.85,0,0,0-1.211.93,5.85,5.85,0,0,0-.93,1.211,6.029,6.029,0,0,0-.6,1.441A6.089,6.089,0,0,0-14,0h-1a7.031,7.031,0,0,1,.328-2.152,6.963,6.963,0,0,1,.93-1.887,6.865,6.865,0,0,1,1.457-1.516,7.09,7.09,0,0,1,1.91-1.039,4.913,4.913,0,0,1-1.094-.8,4.964,4.964,0,0,1-.824-1.043,5.121,5.121,0,0,1-.523-1.227A4.922,4.922,0,0,1-13-11a4.889,4.889,0,0,1,.391-1.949,5.03,5.03,0,0,1,1.07-1.59,5.03,5.03,0,0,1,1.59-1.07A4.889,4.889,0,0,1-8-16a4.889,4.889,0,0,1,1.949.391,5.03,5.03,0,0,1,1.59,1.07,5.03,5.03,0,0,1,1.07,1.59A4.889,4.889,0,0,1-3-11a4.88,4.88,0,0,1-.184,1.336,5.066,5.066,0,0,1-.523,1.219A5.172,5.172,0,0,1-4.527-7.4,4.837,4.837,0,0,1-5.609-6.6ZM-12-11a3.851,3.851,0,0,0,.316,1.555,4.081,4.081,0,0,0,.859,1.27,4.081,4.081,0,0,0,1.27.859A3.851,3.851,0,0,0-8-7a3.851,3.851,0,0,0,1.555-.316,4.081,4.081,0,0,0,1.27-.859,4.081,4.081,0,0,0,.859-1.27A3.851,3.851,0,0,0-4-11a3.851,3.851,0,0,0-.316-1.555,4.081,4.081,0,0,0-.859-1.27,4.081,4.081,0,0,0-1.27-.859A3.851,3.851,0,0,0-8-15a3.851,3.851,0,0,0-1.555.316,4.081,4.081,0,0,0-1.27.859,4.081,4.081,0,0,0-.859,1.27A3.851,3.851,0,0,0-12-11Z" transform="translate(15 16)"/>
    </symbol>
    <symbol id="word" viewBox="0 0 20 20">
        <path d="M0-3.639V-17.75a1.211,1.211,0,0,0-.1-.488,1.27,1.27,0,0,0-.269-.4,1.27,1.27,0,0,0-.4-.269A1.211,1.211,0,0,0-1.25-19h-12.5a1.211,1.211,0,0,0-.488.1,1.27,1.27,0,0,0-.4.269,1.27,1.27,0,0,0-.269.4,1.211,1.211,0,0,0-.1.488v2.5h-3.877a1.069,1.069,0,0,0-.435.088,1.159,1.159,0,0,0-.356.244,1.159,1.159,0,0,0-.244.356,1.069,1.069,0,0,0-.088.435v9a1.069,1.069,0,0,0,.088.435,1.159,1.159,0,0,0,.244.356,1.159,1.159,0,0,0,.356.244A1.069,1.069,0,0,0-18.877-4H-15V-.25a1.211,1.211,0,0,0,.1.488,1.27,1.27,0,0,0,.269.4,1.27,1.27,0,0,0,.4.269,1.211,1.211,0,0,0,.488.1h9.111A1.278,1.278,0,0,0-4.155.907,1.208,1.208,0,0,0-3.75.639L-.361-2.75a1.208,1.208,0,0,0,.269-.405A1.278,1.278,0,0,0,0-3.639Zm-3.75,2.5V-2.75h1.611ZM-16.875-12.906H-15.3q.02.078.093.42t.171.815q.1.474.21,1.006t.21.981l.161.742a2.653,2.653,0,0,0,.073.3l.068-.3.171-.747q.1-.449.22-.981t.225-1.006l.186-.82q.078-.347.1-.415h1.563l1.445,6.563h-1.445l-.781-4.277-.977,4.277H-15.1l-.937-4.3-.84,4.3H-18.34Zm3.125-4.844h12.5V-4h-2.5a1.211,1.211,0,0,0-.488.1,1.27,1.27,0,0,0-.4.269,1.27,1.27,0,0,0-.269.4A1.211,1.211,0,0,0-5-2.75v2.5h-8.75V-4h3.877a1.069,1.069,0,0,0,.435-.088,1.159,1.159,0,0,0,.356-.244,1.159,1.159,0,0,0,.244-.356,1.069,1.069,0,0,0,.088-.435v-9a1.069,1.069,0,0,0-.088-.435,1.159,1.159,0,0,0-.244-.356,1.159,1.159,0,0,0-.356-.244,1.069,1.069,0,0,0-.435-.088H-13.75Zm6.25,10V-6.5h5V-7.75Zm0-2.5V-9h5v-1.25Zm0-2.5v1.25h5v-1.25Z" transform="translate(0 1) rotate(180)"/>
    </symbol>
    <symbol id="yt" viewBox="0 0 40 28">
        <path d="M38.9,4.352a4.976,4.976,0,0,0-3.5-3.5C32.291,0,19.859,0,19.859,0S7.427,0,4.318.818a5.078,5.078,0,0,0-3.5,3.533C0,7.459,0,13.9,0,13.9s0,6.478.818,9.553a4.977,4.977,0,0,0,3.5,3.5c3.141.851,15.54.851,15.54.851s12.432,0,15.54-.818a4.976,4.976,0,0,0,3.5-3.5c.818-3.108.818-9.553.818-9.553s.033-6.478-.818-9.586Zm0,0" transform="translate(0 0)" fill="red"/><path d="M204.969,114.393l10.338-5.954-10.338-5.954Zm0,0" transform="translate(-189.069 -94.534)" fill="#fff"/>
    </symbol>
    <symbol id="play" viewBox="0 0 102 102">
        <path d="M51 99C77.5097 99 99 77.5097 99 51C99 24.4903 77.5097 3 51 3C24.4903 3 3 24.4903 3 51C3 77.5097 24.4903 99 51 99Z" stroke="#F1B233" stroke-width="6"/>
        <path d="M77.401 45.4501C78.3203 45.9746 79.0846 46.733 79.6162 47.6482C80.1477 48.5635 80.4277 49.6031 80.4277 50.6616C80.4277 51.72 80.1477 52.7597 79.6162 53.6749C79.0846 54.5902 78.3203 55.3486 77.401 55.8731L42.551 75.7581C41.6387 76.2785 40.6058 76.5503 39.5556 76.5464C38.5053 76.5425 37.4745 76.2629 36.5661 75.7357C35.6577 75.2085 34.9037 74.4521 34.3793 73.5421C33.8549 72.6321 33.5786 71.6004 33.578 70.5501V30.7821C33.5779 29.7315 33.8537 28.6993 34.3778 27.7887C34.9019 26.8782 35.6559 26.1212 36.5644 25.5935C37.4728 25.0658 38.504 24.7859 39.5546 24.7818C40.6052 24.7777 41.6384 25.0495 42.551 25.5701L77.401 45.4501Z" fill="white"/>
    </symbol>
    <symbol id="str" viewBox="0 0 42 42">
        <path d="M-10.625-26.625v5.25h-32L-28-6.625l-3.75,3.75L-52.875-24-31.75-45.125l3.75,3.75-14.625,14.75Z" transform="translate(52.875 45.125)"/>
    </symbol>
</svg>