<svg width="0" height="0" xmlns="http://www.w3.org/2000/svg">
    <symbol id="a" viewBox="0 0 88 88"><g fill="none" stroke="#fff" stroke-width="20" opacity="0.3"><circle cx="44" cy="44" r="44" stroke="none"/><circle cx="44" cy="44" r="34" fill="none"/></g></symbol>
    <symbol id="b" viewBox="0 0 67 66"><line x2="58.5" y2="58" transform="translate(4.243 4.243)" fill="none" stroke="#0071c7" stroke-linecap="round" stroke-width="6"/></symbol>
    <symbol id="c" viewBox="0 0 50 65"><line x1="42" y2="57" transform="translate(4.195 4.195)" fill="none" stroke="#0071c7" stroke-linecap="round" stroke-width="6"/></symbol>
    <symbol id="d" viewBox="0 0 138 128"><path d="M52.667,7.526a5,5,0,0,1,8.666,0l48.352,83.979A5,5,0,0,1,105.352,99H8.648a5,5,0,0,1-4.333-7.495Z" transform="translate(109.019 128.005) rotate(-163)" fill="#f39100"/></symbol>
    <symbol id="e" viewBox="0 0 167 155"><path d="M64.665,7.538a5,5,0,0,1,8.669,0l60.357,104.969A5,5,0,0,1,129.357,120H8.643a5,5,0,0,1-4.335-7.492Z" transform="translate(131.97 155.104) rotate(-163)" fill="#11609c"/></symbol>
    <symbol id="f" viewBox="0 0 67 66"><line x2="58.5" y2="58" transform="translate(4.243 4.243)" fill="none" stroke="#f39100" stroke-linecap="round" stroke-width="6"/></symbol>
    <symbol id="g" viewBox="0 0 88 88"><g fill="none" stroke="#f39100" stroke-width="20"><circle cx="44" cy="44" r="44" stroke="none"/><circle cx="44" cy="44" r="34" fill="none"/></g></symbol>
    <symbol id="h" viewBox="0 0 90 61"><line y1="53" x2="82" transform="translate(4.148 4.148)" fill="none" stroke="#11609c" stroke-linecap="round" stroke-width="6"/></symbol>
    <symbol id="i" viewBox="0 0 125 125"><path d="M43.173,7.469a5,5,0,0,1,8.653,0L90.652,74.494A5,5,0,0,1,86.325,82H8.675a5,5,0,0,1-4.327-7.506Z" transform="translate(124.505 54.869) rotate(132)" fill="#f39100"/></symbol>
    <symbol id="prezent" viewBox="0 0 115 108"><g transform="translate(10 -16.314)" opacity="0.22"><g transform="translate(-10 16.314)"><path d="M107.729,44.9H85.005a27.9,27.9,0,0,0,4.008-3.21,15.025,15.025,0,0,0,0-21.129,15.183,15.183,0,0,0-21.065,0C64.839,23.685,56.572,36.4,57.714,44.9H57.2c1.135-8.5-7.124-21.215-10.234-24.34a15.183,15.183,0,0,0-21.065,0,15.031,15.031,0,0,0-.007,21.129,28.42,28.42,0,0,0,4.015,3.21H7.182A7.194,7.194,0,0,0,0,52.083V70.038a3.592,3.592,0,0,0,3.591,3.591H7.182V116.72a7.194,7.194,0,0,0,7.182,7.182h86.183a7.194,7.194,0,0,0,7.182-7.182V73.629h3.591a3.592,3.592,0,0,0,3.591-3.591V52.083A7.194,7.194,0,0,0,107.729,44.9ZM30.99,25.624a7.655,7.655,0,0,1,10.881,0c4.841,4.869,9.653,17.308,7.979,19.039a2.368,2.368,0,0,1-1.329.237c-4.963,0-14.436-5.157-17.531-8.274A7.833,7.833,0,0,1,30.99,25.624Zm22.874,91.1h-39.5V73.629h39.5Zm0-50.274H7.182V52.083H53.865ZM73.04,25.624a7.737,7.737,0,0,1,10.881,11C80.826,39.744,71.353,44.9,66.39,44.9a2.359,2.359,0,0,1-1.336-.237C63.388,42.933,68.2,30.494,73.04,25.624Zm27.507,91.1h-39.5V73.629h39.5Zm7.182-50.274H61.046V52.083h46.683Z" transform="translate(0 -16.314)" fill="#fff"/></g></g></symbol>
</svg>